<?xml version="1.0" encoding="iso-8859-1"?>
<!-- Generator: Adobe Illustrator 19.0.0, SVG Export Plug-In . SVG Version: 6.00 Build 0)  -->
<svg version="1.1" id="Capa_1" xmlns="http://www.w3.org/2000/svg" xmlns:xlink="http://www.w3.org/1999/xlink" x="0px" y="0px"
	 viewBox="0 0 480 480" style="enable-background:new 0 0 480 480;" xml:space="preserve">
<g>
	<g>
		<path d="M240,0C107.452,0,0,107.452,0,240c0.15,132.486,107.514,239.85,240,240c132.548,0,240-107.452,240-240S372.548,0,240,0z
			 M401.176,84.672c-9.664-2.871-19.801-3.793-29.824-2.712c-26.22,2.873-51.234-11.745-61.6-36
			c-3.826-8.697-9.217-16.618-15.904-23.368C334.753,32.774,371.954,54.292,401.176,84.672z M186.144,22.592
			c-6.686,6.751-12.077,14.671-15.904,23.368c-10.377,24.246-35.383,38.859-61.6,36c-10.023-1.082-20.162-0.157-29.824,2.72
			C108.034,54.293,145.237,32.772,186.144,22.592z M25.768,305.44c-13.023-42.644-13.023-88.204,0-130.848
			c2.279,10.59,6.74,20.589,13.096,29.36c15.625,21.504,15.625,50.624,0,72.128C32.508,284.851,28.047,294.85,25.768,305.44z
			 M78.832,395.328c9.66,2.875,19.796,3.797,29.816,2.712c26.223-2.886,51.244,11.736,61.6,36
			c3.826,8.697,9.217,16.618,15.904,23.368C145.249,447.227,108.05,425.709,78.832,395.328z M293.856,457.408
			c6.686-6.751,12.077-14.671,15.904-23.368c10.342-24.277,35.373-38.905,61.6-36c10.02,1.083,20.155,0.164,29.816-2.704
			C371.955,425.711,334.757,447.226,293.856,457.408z M431.52,352.456c-11.767,20.693-34.75,32.364-58.4,29.656
			c-33.189-3.67-64.87,14.814-78.008,45.512c-13.02,30.429-48.243,44.541-78.671,31.521c-14.169-6.063-25.458-17.352-31.521-31.521
			c-11.939-27.848-39.301-45.923-69.6-45.976c-2.804,0.004-5.605,0.159-8.392,0.464c-23.653,2.725-46.645-8.95-58.4-29.656
			c-12.443-20.986-11.136-47.378,3.32-67.032c19.655-27.104,19.649-63.775-0.016-90.872v-0.024
			c-14.456-19.654-15.763-46.046-3.32-67.032c11.727-20.735,34.74-32.421,58.4-29.656c33.181,3.629,64.839-14.841,78.008-45.512
			c13.02-30.429,48.243-44.541,78.671-31.521c14.169,6.063,25.458,17.352,31.521,31.521c13.146,30.691,44.821,49.171,78.008,45.512
			c23.656-2.741,46.656,8.939,58.4,29.656c12.443,20.986,11.136,47.378-3.32,67.032c-19.672,27.106-19.672,63.79,0,90.896
			C442.656,305.078,443.963,331.47,431.52,352.456z M441.136,276.048c-15.625-21.504-15.625-50.624,0-72.128
			c6.357-8.771,10.817-18.77,13.096-29.36c13.023,42.644,13.023,88.204,0,130.848C451.953,294.818,447.492,284.819,441.136,276.048z
			"/>
	</g>
</g>
<g>
	<g>
		<path d="M240,152c-48.577,0.057-87.943,39.423-88,88c0,48.601,39.399,88,88,88s88-39.399,88-88C328,191.399,288.601,152,240,152z
			 M240,312c-39.765,0-72-32.236-72-72c0.049-39.744,32.256-71.952,72-72c39.765,0,72,32.235,72,72C312,279.764,279.765,312,240,312
			z"/>
	</g>
</g>
<g>
	<g>
		<rect x="219.029" y="75.996" transform="matrix(0.7071 -0.7071 0.7071 0.7071 9.7287 191.48)" width="33.944" height="16"/>
	</g>
</g>
<g>
	<g>
		<rect x="283.039" y="116.02" transform="matrix(0.7071 -0.7071 0.7071 0.7071 0.1758 248.4646)" width="33.944" height="16"/>
	</g>
</g>
<g>
	<g>
		<rect x="76.002" y="155.032" transform="matrix(0.7071 -0.7071 0.7071 0.7071 -97.0218 109.7777)" width="16" height="33.944"/>
	</g>
</g>
<g>
	<g>
		<rect x="123.03" y="179.994" transform="matrix(0.7071 -0.7071 0.7071 0.7071 -91.9264 154.059)" width="33.944" height="16"/>
	</g>
</g>
<g>
	<g>
		<rect x="92.006" y="267.041" transform="matrix(0.7071 -0.7071 0.7071 0.7071 -171.5358 153.8998)" width="16" height="33.944"/>
	</g>
</g>
<g>
	<g>
		<rect x="123.031" y="331.995" transform="matrix(0.7071 -0.7071 0.7071 0.7071 -199.4069 198.5795)" width="33.944" height="16"/>
	</g>
</g>
<g>
	<g>
		<rect x="220.014" y="355.036" transform="matrix(0.7071 -0.7071 0.7071 0.7071 -196.2659 270.189)" width="16" height="33.944"/>
	</g>
</g>
<g>
	<g>
		<rect x="291.025" y="348.013" transform="matrix(0.7071 -0.7071 0.7071 0.7071 -161.5288 322.0611)" width="33.944" height="16"/>
	</g>
</g>
<g>
	<g>
		<rect x="356.001" y="155.034" transform="matrix(0.7071 -0.7071 0.7071 0.7071 -15.0133 307.7661)" width="16" height="33.944"/>
	</g>
</g>
<g>
	<g>
		<rect x="363.037" y="243.993" transform="matrix(0.7071 -0.7071 0.7071 0.7071 -66.884 342.5145)" width="33.944" height="16"/>
	</g>
</g>
<g>
	<g>
		<rect x="164.007" y="107.033" transform="matrix(0.7071 -0.7071 0.7071 0.7071 -37.3055 157.9476)" width="16" height="33.944"/>
	</g>
</g>
<g>
	<g>
		<rect x="371.039" y="323.993" transform="matrix(0.7071 -0.7071 0.7071 0.7071 -121.1089 371.6039)" width="33.944" height="16"/>
	</g>
</g>
<g>
</g>
<g>
</g>
<g>
</g>
<g>
</g>
<g>
</g>
<g>
</g>
<g>
</g>
<g>
</g>
<g>
</g>
<g>
</g>
<g>
</g>
<g>
</g>
<g>
</g>
<g>
</g>
<g>
</g>
</svg>
